PathFileType	4	(X/Y/Z)	Walk2.trc
DataRate	CameraRate	NumFrames	NumMarkers	Units	OrigDataRate	OrigDataStartFrame	OrigNumFrames
200.000000	200.000000	6	59	mm	200.000000	412	574
Frame#	Times		RFHD		CLAV		STRN		LASI		RASI		RACR1		RUA1		RElbow		RFA1		RWRU		LACR1		LUA1		LFA1		LCAR		RTH1		RTH2		LTH3		LTH2		LTH4		LLFC		LTB1		LTB3		LTB4		LLMAL		LMT1		LToe		RTH3		LTH1		LFHD		C7		RCAR		RTH4		LWRR		RLFC		LTB2		RBack		RPSI		LMT5		LMMAL		RBHD		T10		LPSI		LElbow		RTB1		LWRU		RTB2		RCAL		RMMAL		RTB4		RToe		RMT1		RTB3		RWRR		LElbowM		LBHD		RElbowM		RMT5		RLMAL		LCAL
			X1	Y1	Z1	X2	Y2	Z2	X3	Y3	Z3	X4	Y4	Z4	X5	Y5	Z5	X6	Y6	Z6	X7	Y7	Z7	X8	Y8	Z8	X9	Y9	Z9	X10	Y10	Z10	X11	Y11	Z11	X12	Y12	Z12	X13	Y13	Z13	X14	Y14	Z14	X15	Y15	Z15	X16	Y16	Z16	X17	Y17	Z17	X18	Y18	Z18	X19	Y19	Z19	X20	Y20	Z20	X21	Y21	Z21	X22	Y22	Z22	X23	Y23	Z23	X24	Y24	Z24	X25	Y25	Z25	X26	Y26	Z26	X27	Y27	Z27	X28	Y28	Z28	X29	Y29	Z29	X30	Y30	Z30	X31	Y31	Z31	X32	Y32	Z32	X33	Y33	Z33	X34	Y34	Z34	X35	Y35	Z35	X36	Y36	Z36	X37	Y37	Z37	X38	Y38	Z38	X39	Y39	Z39	X40	Y40	Z40	X41	Y41	Z41	X42	Y42	Z42	X43	Y43	Z43	X44	Y44	Z44	X45	Y45	Z45	X46	Y46	Z46	X47	Y47	Z47	X48	Y48	Z48	X49	Y49	Z49	X50	Y50	Z50	X51	Y51	Z51	X52	Y52	Z52	X53	Y53	Z53	X54	Y54	Z54	X55	Y55	Z55	X56	Y56	Z56	X57	Y57	Z57	X58	Y58	Z58	X59	Y59	Z59

412	2.06	250.06	1584.7	63.931	190.95	1348.3	14.346	268.54	1126.3	7.1704	208.49	948.82	-119.7	229.67	955.87	152.96	152.72	1355.6	190.94	137.76	1142.3	247.78	115.6	1035.7	269.08	183.62	897.65	266.42	161.43	787.64	281.78	118.06	1368.2	-149.41	98.287	1162.9	-205.63	167.75	935.01	-238.23	224.27	787.76	-246.13	150.68	751.63	195.45	227.32	677.06	147	209.99	567.35	-132.72	247.95	676.05	-120.04	178.56	650.88	-144.28	218.78	473.59	-122.65	194.27	373.23	-51.229	53.648	248.46	-55.107	123.14	309.03	-57.276	-53.96	194.43	-100.55	37.932	75.847	-61.615	61.06	50.112	-89.248	172.82	568.5	150.43	146.78	742.53	-151.53	244.68	1582	-8.8205	66.361	1426.2	29.66	210.01	750.59	274.08	160.78	660.24	171.5	214.96	827.81	-201.41	178.18	464.05	133.79	104.45	332.51	-123.36	29.752	1318.2	127.34	11.308	984.52	93.417	-8.3219	83.645	-123.25	-28.693	192.51	-21.439	76.205	1561.2	98.857	30.339	1141.5	27.082	1.0228	973.94	-21.247	85.666	1043.6	-226.26	190.56	341.43	53.979	166.68	814.28	-252.93	158.92	253.14	120.98	36.906	29.216	43.59	102.82	77.817	13.25	166.17	251.83	49.551	284.12	27.726	82.307	239.78	38.63	47.752	141.86	163.01	44.522	208.23	796.7	224.76	71.169	1024.1	-156.89	73.163	1566.8	-29.294	89.73	1016.6	188.92	192.83	21.297	132.04	83.561	62.76	91.398	-107.43	203.73	-44.198
413	2.065	255.24	1585.1	64.15	195.79	1348.9	14.634	273.36	1127	7.7044	213.98	949.61	-119.07	234.53	956.58	153.36	157.59	1356.4	191.22	143.4	1143	248.25	121.86	1036.3	269.61	190.9	898.75	266.52	169.63	788.52	281.65	122.84	1368.7	-149.13	102.54	1163.3	-205.06	170.48	934.96	-237.64	225.86	787.22	-245.68	155.19	751.89	195.48	231.01	676.64	146.9	217.28	568.92	-132.58	254.31	677.92	-119.88	185.24	652.19	-144.25	226.77	474.98	-122.31	203.94	374.22	-50.847	65.446	247.1	-54.472	133.88	308.83	-56.762	-41.168	191.07	-99.762	53.466	74.791	-60.92	77.167	49.521	-88.528	175.59	568.58	150.47	152.68	743.57	-151.53	249.85	1582.3	-8.6149	71.252	1426.8	29.938	218.57	751.94	273.81	164.34	660.43	171.46	216.94	827.35	-200.94	180.04	464.01	133.85	114.68	331.96	-122.79	34.657	1318.8	127.75	16.242	984.99	93.588	7.0039	81.491	-122.48	-15.878	189.66	-20.676	81.376	1561.9	99.113	35.247	1142	27.514	6.0473	974.49	-21.077	89.171	1044	-225.55	191.84	341.27	54.038	168.44	814.22	-252.38	159.76	253.12	120.98	36.972	29.574	43.492	103.02	78.034	13.198	167.05	251.78	49.58	284.16	27.654	82.404	239.8	38.609	47.747	142.38	163.06	44.504	216.25	798.11	224.58	74.744	1024.8	-156.12	78.315	1567.5	-29.047	95.625	1017.2	189.66	192.83	21.307	132.04	83.688	63.019	91.37	-94.978	199.08	-43.394
414	2.07	260.43	1585.4	64.35	200.61	1349.4	14.905	278.17	1127.6	8.2407	219.45	950.35	-118.44	239.41	957.23	153.73	162.46	1357.1	191.48	149.02	1143.8	248.72	128.1	1036.9	270.12	198.16	899.84	266.61	177.8	789.4	281.5	127.62	1369.1	-148.87	106.78	1163.7	-204.51	173.19	934.86	-237.07	227.4	786.65	-245.26	159.64	752.1	195.5	234.69	676.2	146.82	224.5	570.44	-132.43	260.61	679.76	-119.69	191.88	653.48	-144.22	234.66	476.32	-121.95	213.56	375.16	-50.456	77.331	245.63	-53.848	144.63	308.54	-56.251	-28.216	187.54	-98.993	69.163	73.68	-60.262	93.445	48.89	-87.837	178.36	568.64	150.5	158.54	744.57	-151.54	255.01	1582.6	-8.4291	76.129	1427.3	30.192	227.1	753.28	273.53	167.88	660.59	171.4	218.9	826.87	-200.5	181.92	463.95	133.9	124.93	331.3	-122.22	39.548	1319.4	128.13	21.172	985.42	93.761	22.511	79.248	-121.74	-2.9051	186.65	-19.937	86.541	1562.5	99.356	40.144	1142.5	27.924	11.057	975	-20.905	92.663	1044.4	-224.85	193.14	341.11	54.085	170.16	814.12	-251.82	160.63	253.09	120.97	37.042	29.944	43.388	103.23	78.256	13.139	167.94	251.72	49.597	284.21	27.588	82.493	239.82	38.584	47.738	142.91	163.1	44.478	224.26	799.52	224.38	78.319	1025.4	-155.34	83.457	1568.1	-28.811	101.53	1017.7	190.39	192.84	21.32	132.04	83.828	63.279	91.34	-82.325	194.22	-42.606
415	2.075	265.6	1585.6	64.529	205.43	1349.8	15.158	282.98	1128.2	8.7753	224.91	951.05	-117.81	244.29	957.83	154.06	167.3	1357.8	191.72	154.63	1144.4	249.17	134.31	1037.5	270.63	205.38	900.9	266.7	185.95	790.25	281.32	132.39	1369.4	-148.63	111.01	1164	-203.98	175.87	934.72	-236.53	228.91	786.03	-244.86	164.03	752.28	195.52	238.34	675.75	146.75	231.65	571.93	-132.29	266.83	681.53	-119.47	198.48	654.72	-144.2	242.45	477.59	-121.59	223.12	376.05	-50.058	89.305	244.06	-53.236	155.41	308.18	-55.742	-15.104	183.86	-98.241	85.017	72.522	-59.655	109.88	48.233	-87.193	181.15	568.69	150.51	164.38	745.54	-151.56	260.16	1582.9	-8.2624	80.992	1427.8	30.421	235.62	754.62	273.22	171.41	660.72	171.33	220.87	826.36	-200.1	183.82	463.89	133.94	135.19	330.55	-121.65	44.424	1319.9	128.5	26.098	985.82	93.935	38.191	76.931	-121.04	10.229	183.49	-19.221	91.702	1563.1	99.588	45.033	1142.9	28.312	16.055	975.47	-20.73	96.147	1044.8	-224.15	194.45	340.95	54.118	171.85	813.98	-251.26	161.51	253.06	120.95	37.116	30.323	43.279	103.44	78.482	13.072	168.84	251.67	49.601	284.27	27.528	82.575	239.85	38.556	47.724	143.44	163.15	44.443	232.26	800.92	224.17	81.898	1025.9	-154.57	88.587	1568.7	-28.585	107.45	1018.2	191.1	192.86	21.338	132.02	83.982	63.541	91.307	-69.467	189.16	-41.828
416	2.08	270.77	1585.9	64.687	210.23	1350.2	15.395	287.79	1128.8	9.3047	230.33	951.69	-117.19	249.18	958.35	154.37	172.14	1358.5	191.94	160.23	1145.1	249.61	140.5	1038.1	271.13	212.58	901.94	266.79	194.08	791.09	281.12	137.15	1369.7	-148.41	115.23	1164.3	-203.47	178.52	934.53	-236.01	230.38	785.38	-244.49	168.36	752.41	195.54	241.97	675.31	146.69	238.74	573.38	-132.15	273	683.25	-119.21	205.04	655.92	-144.19	250.13	478.81	-121.22	232.62	376.88	-49.656	101.37	242.38	-52.638	166.2	307.74	-55.238	-1.8313	180.04	-97.504	101.02	71.329	-59.114	126.47	47.564	-86.616	183.94	568.72	150.51	170.18	746.48	-151.6	265.3	1583.1	-8.1144	85.843	1428.2	30.627	244.1	755.94	272.9	174.91	660.81	171.24	222.83	825.82	-199.73	185.75	463.82	133.97	145.47	329.7	-121.07	49.286	1320.4	128.83	31.021	986.17	94.111	54.035	74.557	-120.39	23.531	180.19	-18.53	96.858	1563.7	99.807	49.915	1143.3	28.677	21.04	975.89	-20.555	99.625	1045.2	-223.45	195.77	340.78	54.139	173.52	813.79	-250.7	162.41	253.02	120.92	37.195	30.711	43.167	103.68	78.712	12.999	169.76	251.61	49.592	284.32	27.476	82.649	239.88	38.525	47.706	143.99	163.19	44.399	240.25	802.31	223.95	85.484	1026.4	-153.8	93.708	1569.2	-28.371	113.4	1018.7	191.81	192.88	21.36	132	84.149	63.804	91.268	-56.395	183.91	-41.055
417	2.085	275.94	1586	64.826	215.02	1350.6	15.614	292.6	1129.3	9.825	235.71	952.29	-116.59	254.08	958.8	154.64	176.96	1359.1	192.14	165.81	1145.7	250.04	146.66	1038.6	271.61	219.75	902.95	266.88	202.18	791.9	280.89	141.9	1370	-148.21	119.43	1164.5	-202.98	181.15	934.29	-235.52	231.82	784.68	-244.15	172.62	752.5	195.56	245.57	674.86	146.64	245.74	574.77	-132.01	279.1	684.9	-118.92	211.55	657.07	-144.18	257.7	479.96	-120.84	242.05	377.65	-49.254	113.52	240.61	-52.055	177.02	307.22	-54.742	11.601	176.09	-96.78	117.17	70.107	-58.65	143.21	46.897	-86.125	186.75	568.73	150.5	175.94	747.38	-151.65	270.43	1583.3	-7.9845	90.683	1428.7	30.81	252.57	757.24	272.56	178.4	660.87	171.14	224.79	825.25	-199.4	187.7	463.74	134	155.74	328.77	-120.5	54.132	1320.8	129.14	35.939	986.47	94.286	70.032	72.143	-119.81	37.004	176.76	-17.864	102.01	1564.2	100.01	54.789	1143.7	29.02	26.016	976.27	-20.38	103.1	1045.4	-222.75	197.1	340.6	54.146	175.17	813.55	-250.14	163.34	252.98	120.87	37.277	31.106	43.053	103.92	78.944	12.917	170.69	251.54	49.569	284.38	27.431	82.717	239.92	38.49	47.682	144.54	163.23	44.348	248.22	803.69	223.72	89.08	1026.9	-153.03	98.819	1569.7	-28.169	119.37	1019.1	192.49	192.9	21.386	131.98	84.328	64.067	91.223	-43.103	178.48	-40.281
